<svg width="24" height="24" viewBox="0 0 24 24" fill="none" xmlns="http://www.w3.org/2000/svg">
<path d="M3.21938 11.4709L9.96938 4.72091C10.1101 4.58018 10.301 4.50111 10.5 4.50111C10.699 4.50111 10.8899 4.58018 11.0306 4.72091C11.1714 4.86164 11.2504 5.05251 11.2504 5.25153C11.2504 5.45056 11.1714 5.64143 11.0306 5.78216L5.56031 11.2515L20.25 11.2515C20.4489 11.2515 20.6397 11.3306 20.7803 11.4712C20.921 11.6119 21 11.8026 21 12.0015C21 12.2004 20.921 12.3912 20.7803 12.5319C20.6397 12.6725 20.4489 12.7515 20.25 12.7515L5.56031 12.7515L11.0306 18.2209C11.1714 18.3616 11.2504 18.5525 11.2504 18.7515C11.2504 18.9506 11.1714 19.1414 11.0306 19.2822C10.8899 19.4229 10.699 19.502 10.5 19.502C10.301 19.502 10.1101 19.4229 9.96938 19.2822L3.21938 12.5322C3.14964 12.4625 3.09432 12.3798 3.05658 12.2887C3.01884 12.1977 2.99941 12.1001 2.99941 12.0015C2.99941 11.903 3.01884 11.8054 3.05658 11.7143C3.09432 11.6233 3.14964 11.5406 3.21938 11.4709Z" fill="white"/>
</svg>
