<svg width="32" height="32" viewBox="0 0 32 32" fill="none" xmlns="http://www.w3.org/2000/svg">
<path d="M6.74 4.32739C6.60424 4.17804 6.42647 4.07325 6.23005 4.02682C6.03363 3.98039 5.82776 3.99448 5.63949 4.06724C5.45123 4.14001 5.28939 4.26803 5.17526 4.43449C5.06112 4.60096 5.00002 4.79806 5 4.99989C4.46957 4.99989 3.96086 5.21061 3.58579 5.58568C3.21071 5.96075 3 6.46946 3 6.99989V22.9999C3 23.5303 3.21071 24.039 3.58579 24.4141C3.96086 24.7892 4.46957 24.9999 5 24.9999H12.5538L14.2638 27.9924C14.4387 28.2984 14.6914 28.5527 14.9964 28.7296C15.3013 28.9065 15.6475 28.9997 16 28.9997C16.3525 28.9997 16.6987 28.9065 17.0036 28.7296C17.3086 28.5527 17.5613 28.2984 17.7362 27.9924L19.4463 24.9999H22.83L25.26 27.6724C25.3478 27.7714 25.4544 27.852 25.5736 27.9095C25.6928 27.9669 25.8222 28.0002 25.9543 28.0073C26.0865 28.0144 26.2187 27.9952 26.3434 27.9509C26.4681 27.9065 26.5827 27.8378 26.6806 27.7488C26.7785 27.6598 26.8578 27.5523 26.9139 27.4324C26.97 27.3125 27.0017 27.1827 27.0072 27.0505C27.0127 26.9183 26.9919 26.7863 26.9461 26.6622C26.9002 26.538 26.8302 26.4242 26.74 26.3274L6.74 4.32739ZM18.865 22.9999C18.6879 22.9983 18.5136 23.0438 18.3599 23.1316C18.2062 23.2195 18.0785 23.3465 17.99 23.4999L15.99 26.9999L13.99 23.4999C13.9015 23.3465 13.7738 23.2195 13.6201 23.1316C13.4664 23.0438 13.2921 22.9983 13.115 22.9999H5V6.99989H6.46625L21.0125 22.9999H18.865ZM29 6.99989V23.2499C29 23.5151 28.8946 23.7695 28.7071 23.957C28.5196 24.1445 28.2652 24.2499 28 24.2499C27.7348 24.2499 27.4804 24.1445 27.2929 23.957C27.1054 23.7695 27 23.5151 27 23.2499V6.99989H12.315C12.0498 6.99989 11.7954 6.89454 11.6079 6.707C11.4204 6.51946 11.315 6.26511 11.315 5.99989C11.315 5.73468 11.4204 5.48032 11.6079 5.29279C11.7954 5.10525 12.0498 4.99989 12.315 4.99989H27C27.5304 4.99989 28.0391 5.21061 28.4142 5.58568C28.7893 5.96075 29 6.46946 29 6.99989Z" fill="white"/>
</svg>
