<svg width="18" height="18" viewBox="0 0 18 18" fill="none" xmlns="http://www.w3.org/2000/svg">
<path d="M15.9834 5.15866L12.8412 2.0171C12.7367 1.9126 12.6127 1.82971 12.4762 1.77316C12.3397 1.71661 12.1933 1.6875 12.0456 1.6875C11.8978 1.6875 11.7515 1.71661 11.615 1.77316C11.4785 1.82971 11.3545 1.9126 11.25 2.0171L2.57977 10.6873C2.47485 10.7914 2.39167 10.9153 2.33506 11.0518C2.27844 11.1884 2.24953 11.3348 2.25001 11.4826V14.6248C2.25001 14.9232 2.36853 15.2093 2.57951 15.4203C2.79049 15.6313 3.07664 15.7498 3.37501 15.7498H6.51727C6.66506 15.7503 6.81147 15.7214 6.94799 15.6648C7.08451 15.6082 7.20842 15.525 7.3125 15.4201L13.1955 9.53772L13.4402 10.5151L10.8527 13.1019C10.7472 13.2073 10.6879 13.3504 10.6878 13.4996C10.6877 13.6488 10.7469 13.7919 10.8524 13.8975C10.9578 14.003 11.1009 14.0623 11.2501 14.0624C11.3993 14.0625 11.5424 14.0033 11.648 13.8978L14.4605 11.0853C14.5293 11.0166 14.5791 10.9313 14.6051 10.8377C14.6311 10.744 14.6324 10.6452 14.6088 10.5509L14.1237 8.6096L15.9834 6.74983C16.0879 6.64536 16.1708 6.52133 16.2274 6.38482C16.2839 6.24832 16.313 6.102 16.313 5.95424C16.313 5.80649 16.2839 5.66017 16.2274 5.52367C16.1708 5.38716 16.0879 5.26313 15.9834 5.15866ZM3.37501 12.6076L5.39227 14.6248H3.37501V12.6076ZM6.75 14.3921L3.60774 11.2498L9.5625 5.29506L12.7048 8.43733L6.75 14.3921ZM13.5 7.6421L10.3584 4.49983L12.0459 2.81233L15.1875 5.9546L13.5 7.6421Z" fill="white"/>
</svg>
