<svg width="18" height="18" viewBox="0 0 18 18" fill="none" xmlns="http://www.w3.org/2000/svg">
<path d="M9.00026 5.62547C8.33274 5.62547 7.68022 5.82342 7.12521 6.19426C6.57019 6.56511 6.13761 7.09222 5.88216 7.70892C5.62672 8.32562 5.55988 9.00422 5.69011 9.6589C5.82033 10.3136 6.14177 10.915 6.61377 11.387C7.08577 11.859 7.68714 12.1804 8.34183 12.3106C8.99651 12.4408 9.67511 12.374 10.2918 12.1186C10.9085 11.8631 11.4356 11.4305 11.8065 10.8755C12.1773 10.3205 12.3753 9.66799 12.3753 9.00047C12.3743 8.10565 12.0184 7.24775 11.3857 6.61502C10.753 5.98228 9.89508 5.62641 9.00026 5.62547ZM9.00026 11.2505C8.55525 11.2505 8.12023 11.1185 7.75022 10.8713C7.38021 10.624 7.09182 10.2726 6.92153 9.86151C6.75123 9.45038 6.70667 8.99798 6.79349 8.56152C6.88031 8.12506 7.0946 7.72415 7.40927 7.40948C7.72393 7.09482 8.12485 6.88052 8.5613 6.79371C8.99776 6.70689 9.45016 6.75145 9.86129 6.92175C10.2724 7.09204 10.6238 7.38043 10.8711 7.75044C11.1183 8.12045 11.2503 8.55547 11.2503 9.00047C11.2503 9.59721 11.0132 10.1695 10.5912 10.5915C10.1693 11.0134 9.59699 11.2505 9.00026 11.2505ZM16.7304 7.53868C16.7147 7.45947 16.6822 7.38456 16.635 7.31904C16.5878 7.25353 16.5271 7.19894 16.4569 7.15899L14.3595 5.96368L14.351 3.59977C14.3508 3.51836 14.3329 3.43797 14.2985 3.36416C14.2641 3.29036 14.2142 3.22488 14.1521 3.17227C13.3912 2.5287 12.5151 2.03551 11.5702 1.71891C11.4958 1.69373 11.4169 1.68441 11.3387 1.69155C11.2604 1.6987 11.1846 1.72215 11.116 1.7604L9.00026 2.94305L6.88244 1.75829C6.81379 1.71982 6.73782 1.69619 6.65946 1.68893C6.5811 1.68166 6.50208 1.69092 6.42752 1.7161C5.48333 2.03501 4.60818 2.53008 3.84846 3.17508C3.78642 3.22762 3.73651 3.29298 3.70216 3.36666C3.6678 3.44034 3.64983 3.52059 3.64947 3.60188L3.63893 5.9679L1.54151 7.16321C1.47134 7.20316 1.41059 7.25774 1.36339 7.32326C1.3162 7.38878 1.28366 7.46369 1.26799 7.5429C1.07603 8.5075 1.07603 9.50048 1.26799 10.4651C1.28366 10.5443 1.3162 10.6192 1.36339 10.6847C1.41059 10.7502 1.47134 10.8048 1.54151 10.8448L3.63893 12.0401L3.64737 14.404C3.64762 14.4854 3.66554 14.5658 3.6999 14.6396C3.73425 14.7134 3.78422 14.7789 3.84635 14.8315C4.60718 15.4751 5.48333 15.9683 6.42822 16.2848C6.50263 16.31 6.5815 16.3194 6.65973 16.3122C6.73796 16.3051 6.81383 16.2816 6.88244 16.2434L9.00026 15.0579L11.1181 16.2427C11.2019 16.2894 11.2963 16.3136 11.3923 16.313C11.4537 16.313 11.5147 16.303 11.573 16.2834C12.5171 15.965 13.3922 15.4704 14.1521 14.8259C14.2141 14.7733 14.264 14.708 14.2984 14.6343C14.3327 14.5606 14.3507 14.4804 14.351 14.3991L14.3616 12.0331L16.459 10.8377C16.5292 10.7978 16.5899 10.7432 16.6371 10.6777C16.6843 10.6122 16.7169 10.5373 16.7325 10.4581C16.9234 9.49422 16.9227 8.50223 16.7304 7.53868ZM15.6757 9.99329L13.6669 11.1359C13.5789 11.1859 13.506 11.2588 13.456 11.3468C13.4152 11.4171 13.3723 11.4916 13.3287 11.562C13.2729 11.6506 13.2432 11.7532 13.2429 11.858L13.2324 14.1256C12.6924 14.5496 12.0909 14.8886 11.4485 15.131L9.42213 14.0018C9.33801 13.9553 9.24335 13.931 9.14721 13.9315H9.13385C9.04877 13.9315 8.96299 13.9315 8.87791 13.9315C8.77729 13.929 8.6778 13.9532 8.58963 14.0018L6.56182 15.1338C5.91811 14.8933 5.31491 14.5559 4.77307 14.1333L4.76533 11.8692C4.76499 11.7643 4.73527 11.6615 4.67955 11.5725C4.63596 11.5022 4.59307 11.4319 4.55299 11.3573C4.5033 11.268 4.43043 11.1936 4.34205 11.1422L2.33112 9.9968C2.22705 9.33855 2.22705 8.66803 2.33112 8.00977L4.33643 6.86508C4.42444 6.81504 4.49732 6.74216 4.54737 6.65415C4.58815 6.58383 4.63104 6.5093 4.67463 6.43899C4.73043 6.35032 4.76016 6.24774 4.76041 6.14297L4.77096 3.8754C5.31091 3.45137 5.91245 3.11231 6.55479 2.86993L8.57838 3.99915C8.66645 4.04796 8.76601 4.07225 8.86666 4.06946C8.95174 4.06946 9.03752 4.06946 9.1226 4.06946C9.22323 4.07197 9.32271 4.04771 9.41088 3.99915L11.4387 2.86712C12.0824 3.10764 12.6856 3.44504 13.2274 3.86766L13.2352 6.13172C13.2355 6.2367 13.2652 6.33948 13.321 6.42844C13.3646 6.49876 13.4074 6.56907 13.4475 6.6436C13.4972 6.73298 13.5701 6.8073 13.6585 6.85876L15.6694 8.00415C15.7748 8.66291 15.776 9.33416 15.6729 9.99329H15.6757Z" fill="white"/>
</svg>
